<svg width="19" height="18" viewBox="0 0 19 18" fill="none" xmlns="http://www.w3.org/2000/svg">
<path d="M9.5 0C4.25202 0 0 4.02823 0 9C0 13.9718 4.25202 18 9.5 18C14.748 18 19 13.9718 19 9C19 4.02823 14.748 0 9.5 0ZM14.1581 11.3625C14.3381 11.5331 14.3381 11.8089 14.1581 11.9794L12.6411 13.4129C12.4611 13.5835 12.17 13.5835 11.9899 13.4129L9.5 11.0323L7.00625 13.4129C6.82621 13.5835 6.53508 13.5835 6.35504 13.4129L4.84194 11.9758C4.6619 11.8052 4.6619 11.5294 4.84194 11.3589L7.35484 9L4.84194 6.6375C4.6619 6.46694 4.6619 6.19113 4.84194 6.02056L6.35887 4.58347C6.53891 4.4129 6.83004 4.4129 7.01008 4.58347L9.5 6.96774L11.9938 4.5871C12.1738 4.41653 12.4649 4.41653 12.645 4.5871L14.1619 6.02419C14.3419 6.19476 14.3419 6.47056 14.1619 6.64113L11.6452 9L14.1581 11.3625Z" fill="white"/>
</svg>
