<svg width="40" height="40" viewBox="0 0 40 40" fill="none" xmlns="http://www.w3.org/2000/svg">
<rect width="40" height="40" rx="8" fill="#320079"/>
<path d="M18.8662 14.8521L16.4358 10.5767C16.3359 10.4008 16.1945 10.2552 16.0255 10.1542C15.8564 10.0531 15.6654 10 15.4712 10H11.5635C11.1083 10 10.8418 10.5407 11.1026 10.9344L15.0145 16.8333C16.0593 15.8028 17.3882 15.0955 18.8662 14.8521ZM28.4365 10H24.5288C24.1337 10 23.7674 10.2189 23.5642 10.5767L21.1338 14.8521C22.6118 15.0955 23.9407 15.8028 24.9855 16.8329L28.8974 10.9344C29.1582 10.5407 28.8917 10 28.4365 10ZM20 15.9375C16.5828 15.9375 13.8125 18.8617 13.8125 22.4688C13.8125 26.0758 16.5828 29 20 29C23.4172 29 26.1875 26.0758 26.1875 22.4688C26.1875 18.8617 23.4172 15.9375 20 15.9375ZM23.2527 21.7733L21.9192 23.1449L22.2345 25.0827C22.2908 25.4301 21.9441 25.6954 21.6492 25.5314L20 24.6166L18.3512 25.5314C18.0559 25.6965 17.7096 25.4297 17.7658 25.0827L18.0812 23.1449L16.7477 21.7733C16.5079 21.5269 16.6405 21.0968 16.9709 21.0463L18.8142 20.7628L19.6379 18.9994C19.7121 18.8406 19.8555 18.7623 19.9993 18.7623C20.1438 18.7623 20.2883 18.8417 20.3625 18.9994L21.1862 20.7628L23.0294 21.0463C23.3599 21.0968 23.4924 21.5269 23.2527 21.7733Z" fill="white"/>
</svg>
