<svg width="40" height="40" viewBox="0 0 40 40" fill="none" xmlns="http://www.w3.org/2000/svg">
<rect width="40" height="40" rx="8" fill="#320079"/>
<path d="M20.522 14C5.99913 14 8.78918 26.6 15.3225 26.6C16.6317 26.6 17.8645 25.9211 18.6503 24.7671L19.4946 23.5271C20.0084 22.7728 21.0358 22.7728 21.5497 23.5271L22.3939 24.7671C23.1795 25.9211 24.4122 26.6 25.7214 26.6C31.9512 26.6 35.2578 14 20.522 14ZM16.0375 22.0181C14.6902 22.0181 13.8141 21.1761 13.4098 20.6711C13.2382 20.4569 13.2382 20.1432 13.4098 19.9286C13.8141 19.4233 14.6899 18.5816 16.0375 18.5816C17.3851 18.5816 18.2609 19.4236 18.6651 19.9286C18.8367 20.1428 18.8367 20.4565 18.6651 20.6711C18.2609 21.1764 17.3848 22.0181 16.0375 22.0181ZM24.9625 22.0181C23.6152 22.0181 22.7391 21.1761 22.3349 20.6711C22.1633 20.4569 22.1633 20.1432 22.3349 19.9286C22.7391 19.4233 23.6149 18.5816 24.9625 18.5816C26.3101 18.5816 27.1859 19.4236 27.5901 19.9286C27.7617 20.1428 27.7617 20.4565 27.5901 20.6711C27.1859 21.1764 26.3098 22.0181 24.9625 22.0181Z" fill="white"/>
</svg>
