<svg width="19" height="18" viewBox="0 0 19 18" fill="none" xmlns="http://www.w3.org/2000/svg">
<path d="M18.0269 6.029L12.8383 5.28026L10.5193 0.62615C10.1037 -0.203435 8.89981 -0.213981 8.48075 0.62615L6.16169 5.28026L0.973099 6.029C0.0426336 6.16257 -0.330263 7.29798 0.344502 7.94829L4.09833 11.5689L3.21048 16.6835C3.05067 17.608 4.0344 18.3005 4.85833 17.8682L9.5 15.4532L14.1417 17.8682C14.9656 18.297 15.9493 17.608 15.7895 16.6835L14.9017 11.5689L18.6555 7.94829C19.3303 7.29798 18.9574 6.16257 18.0269 6.029ZM13.0727 10.9784L13.9144 15.8434L9.5 13.548L5.08562 15.8434L5.9273 10.9784L2.35459 7.5335L7.29103 6.82343L9.5 2.39429L11.709 6.82343L16.6454 7.5335L13.0727 10.9784Z" fill="#6A00FF"/>
</svg>
