<svg width="40" height="40" viewBox="0 0 40 40" fill="none" xmlns="http://www.w3.org/2000/svg">
<rect width="40" height="40" rx="8" fill="#320079"/>
<path d="M26.0022 14H14.0004C13.0112 13.9999 12.0373 14.2443 11.1654 14.7117C10.2936 15.179 9.55076 15.8547 9.00315 16.6785C8.45554 17.5024 8.12013 18.4489 8.02678 19.4338C7.93342 20.4186 8.08502 21.4113 8.46808 22.3234C8.85113 23.2355 9.45375 24.0387 10.2223 24.6616C10.9908 25.2844 11.9015 25.7075 12.8731 25.8933C13.8447 26.079 14.8472 26.0216 15.7912 25.7262C16.7353 25.4308 17.5917 24.9065 18.2841 24.2H21.7159C22.4082 24.9064 23.2645 25.4307 24.2085 25.7261C25.1524 26.0216 26.1548 26.079 27.1263 25.8934C28.0978 25.7078 29.0084 25.2848 29.7769 24.6622C30.5455 24.0395 31.1482 23.2365 31.5314 22.3246C31.9146 21.4127 32.0665 20.4202 31.9734 19.4354C31.8803 18.4506 31.5452 17.5041 30.9979 16.6802C30.4507 15.8562 29.7082 15.1803 28.8366 14.7127C27.965 14.2451 26.9913 14.0003 26.0022 14ZM17.3002 20.45C17.3002 20.5693 17.2528 20.6838 17.1684 20.7682C17.084 20.8526 16.9696 20.9 16.8502 20.9H14.9004V22.85C14.9004 22.9693 14.853 23.0838 14.7686 23.1682C14.6842 23.2526 14.5697 23.3 14.4504 23.3H13.5505C13.4311 23.3 13.3167 23.2526 13.2323 23.1682C13.1479 23.0838 13.1005 22.9693 13.1005 22.85V20.9H11.1506C11.0313 20.9 10.9168 20.8526 10.8325 20.7682C10.7481 20.6838 10.7007 20.5693 10.7007 20.45V19.55C10.7007 19.4307 10.7481 19.3162 10.8325 19.2318C10.9168 19.1474 11.0313 19.1 11.1506 19.1H13.1005V17.15C13.1005 17.0307 13.1479 16.9162 13.2323 16.8318C13.3167 16.7474 13.4311 16.7 13.5505 16.7H14.4504C14.5697 16.7 14.6842 16.7474 14.7686 16.8318C14.853 16.9162 14.9004 17.0307 14.9004 17.15V19.1H16.8502C16.9696 19.1 17.084 19.1474 17.1684 19.2318C17.2528 19.3162 17.3002 19.4307 17.3002 19.55V20.45ZM25.3996 23.3C25.103 23.3 24.813 23.212 24.5663 23.0472C24.3197 22.8824 24.1274 22.6481 24.0139 22.374C23.9004 22.0999 23.8707 21.7983 23.9285 21.5074C23.9864 21.2164 24.1293 20.9491 24.339 20.7393C24.5488 20.5296 24.816 20.3867 25.107 20.3288C25.398 20.2709 25.6995 20.3007 25.9736 20.4142C26.2477 20.5277 26.4819 20.72 26.6467 20.9666C26.8115 21.2133 26.8995 21.5033 26.8995 21.8C26.8995 22.1978 26.7415 22.5794 26.4602 22.8607C26.1789 23.142 25.7974 23.3 25.3996 23.3ZM27.7994 19.7C27.5028 19.7 27.2128 19.612 26.9661 19.4472C26.7195 19.2824 26.5272 19.0481 26.4137 18.774C26.3002 18.4999 26.2705 18.1983 26.3284 17.9074C26.3862 17.6164 26.5291 17.3491 26.7389 17.1393C26.9486 16.9296 27.2159 16.7867 27.5068 16.7288C27.7978 16.6709 28.0994 16.7006 28.3734 16.8142C28.6475 16.9277 28.8817 17.12 29.0466 17.3666C29.2114 17.6133 29.2993 17.9033 29.2993 18.2C29.2993 18.5978 29.1413 18.9794 28.86 19.2607C28.5787 19.542 28.1972 19.7 27.7994 19.7Z" fill="white"/>
</svg>
