<svg width="19" height="18" viewBox="0 0 19 18" fill="none" xmlns="http://www.w3.org/2000/svg">
<path d="M18.0269 6.02965L12.8385 5.28047L10.5199 0.626133C10.3114 0.210234 9.90486 0 9.49828 0C9.09418 0 8.69043 0.207422 8.48129 0.626133L6.16197 5.28012L0.973188 6.02859C0.0426947 6.16219 -0.330212 7.29738 0.344352 7.94777L4.09787 11.5689L3.20956 16.6834C3.08337 17.4139 3.67144 18 4.33005 18C4.50481 18 4.68453 17.9589 4.85715 17.8682L9.49899 15.4536L14.1405 17.8689C14.3127 17.9585 14.4921 17.9993 14.6661 17.9993C15.3255 17.9993 15.9146 17.4154 15.7884 16.6845L14.9012 11.5696L18.6554 7.94918C19.3303 7.29879 18.9574 6.16324 18.0269 6.02965ZM13.7115 10.3609L13.0692 10.9804L13.221 11.855L13.9129 15.8435L10.2927 13.9595L9.49934 13.5468L9.5004 2.39555L11.3093 6.02684L11.7056 6.82242L12.5921 6.95039L16.6413 7.53504L13.7115 10.3609Z" fill="#6A00FF"/>
</svg>
