<svg width="40" height="40" viewBox="0 0 40 40" fill="none" xmlns="http://www.w3.org/2000/svg">
<rect width="40" height="40" rx="8" fill="#320079"/>
<path d="M26.2857 18.3125H25.4286V15.6406C25.4286 12.5309 22.9929 10 20 10C17.0071 10 14.5714 12.5309 14.5714 15.6406V18.3125H13.7143C12.7679 18.3125 12 19.1104 12 20.0938V27.2188C12 28.2021 12.7679 29 13.7143 29H26.2857C27.2321 29 28 28.2021 28 27.2188V20.0938C28 19.1104 27.2321 18.3125 26.2857 18.3125ZM22.5714 18.3125H17.4286V15.6406C17.4286 14.1674 18.5821 12.9688 20 12.9688C21.4179 12.9688 22.5714 14.1674 22.5714 15.6406V18.3125Z" fill="white"/>
</svg>
