<svg width="20" height="20" viewBox="0 0 20 20" fill="none" xmlns="http://www.w3.org/2000/svg">
<path d="M16.9669 9.22688C15.9639 10.5789 14.7459 11.9809 13.3629 13.3629C8.20688 18.5199 2.77888 21.3929 0.702881 19.3169C-0.533119 18.0799 -0.0691192 15.8489 1.54788 13.0799C0.963158 11.4704 0.849712 9.72759 1.22086 8.05593C1.59201 6.38427 2.43235 4.85318 3.64323 3.64241C4.85411 2.43164 6.38527 1.59143 8.05696 1.22043C9.72865 0.849422 11.4715 0.963019 13.0809 1.54788C15.8489 -0.0691192 18.0809 -0.533119 19.3169 0.702881C20.5149 1.90188 20.0639 4.21688 18.4769 6.95288C18.9344 8.2208 19.1013 9.57526 18.9654 10.9163C18.8294 12.2574 18.3941 13.5508 17.6915 14.7011C16.989 15.8515 16.037 16.8294 14.906 17.5626C13.775 18.2959 12.4938 18.7659 11.1569 18.9379C11.0265 18.9544 10.8942 18.9451 10.7675 18.9105C10.6407 18.876 10.522 18.8167 10.4182 18.7363C10.2084 18.5738 10.0718 18.3346 10.0384 18.0714C10.0218 17.941 10.0311 17.8087 10.0657 17.682C10.1003 17.5552 10.1595 17.4365 10.24 17.3327C10.3204 17.2288 10.4206 17.1418 10.5347 17.0766C10.6487 17.0115 10.7745 16.9694 10.9049 16.9529C12.7267 16.7175 14.3831 15.7757 15.517 14.3305C16.651 12.8853 17.1717 11.0524 16.9669 9.22688ZM16.2199 6.77988C15.7118 5.80519 14.9813 4.96384 14.0876 4.32398C13.1938 3.68411 12.162 3.26371 11.0755 3.0968C9.98911 2.9299 8.87864 3.02119 7.83406 3.36328C6.78947 3.70538 5.84012 4.28865 5.06289 5.06589C4.28565 5.84312 3.70238 6.79247 3.36028 7.83706C3.01819 8.88164 2.9269 9.99211 3.0938 11.0785C3.26071 12.165 3.68111 13.1968 4.32098 14.0906C4.96084 14.9843 5.80219 15.7148 6.77688 16.2229C8.42488 15.1499 10.2239 13.6739 11.9479 11.9499C13.6719 10.2259 15.1479 8.42788 16.2199 6.77988ZM4.79588 17.3479C3.97439 16.7636 3.25676 16.0456 2.67288 15.2239C1.99788 16.6469 1.84988 17.6349 2.11688 17.9029C2.37088 18.1559 3.35088 18.0329 4.79588 17.3479ZM15.2239 2.67288C16.0449 3.25772 16.7624 3.9756 17.3469 4.79688C18.0319 3.35188 18.1559 2.37088 17.9029 2.11688C17.6349 1.84988 16.6469 1.99688 15.2229 2.67288H15.2239Z" fill="white"/>
</svg>
