<svg width="22" height="19" viewBox="0 0 22 19" fill="none" xmlns="http://www.w3.org/2000/svg">
<path d="M0.77551 3.4898H20.9388C21.3671 3.4898 21.7143 3.14261 21.7143 2.71429V0.77551C21.7143 0.347186 21.3671 0 20.9388 0H0.77551C0.347186 0 0 0.347186 0 0.77551V2.71429C0 3.14261 0.347186 3.4898 0.77551 3.4898ZM0.77551 11.2449H20.9388C21.3671 11.2449 21.7143 10.8977 21.7143 10.4694V8.53061C21.7143 8.10229 21.3671 7.7551 20.9388 7.7551H0.77551C0.347186 7.7551 0 8.10229 0 8.53061V10.4694C0 10.8977 0.347186 11.2449 0.77551 11.2449ZM0.77551 19H20.9388C21.3671 19 21.7143 18.6528 21.7143 18.2245V16.2857C21.7143 15.8574 21.3671 15.5102 20.9388 15.5102H0.77551C0.347186 15.5102 0 15.8574 0 16.2857V18.2245C0 18.6528 0.347186 19 0.77551 19Z" fill="white"/>
</svg>
